<?xml version="1.0" encoding="UTF-8"?>
<svg id="_Слой_2" data-name="Слой 2" xmlns="http://www.w3.org/2000/svg" viewBox="0 0 271.86 274.07">
  <defs>
    <style>
      .cls-1 {
        fill: #4f70b5;
        fill-rule: evenodd;
      }
    </style>
  </defs>
  <g id="_1" data-name="1">
    <path class="cls-1" d="m0,134.33c-.01-10.37,1.38-21.29,3.45-30.23,2.15-9.3,4.83-16.32,8.4-25.03,5.22-12.76,14.2-25.14,23.21-35.43,1.29-1.47,2.54-2.67,3.97-4.27,2.62-2.93,5.81-5.62,8.75-8.21,2.98-2.62,6.03-4.73,9.55-7.17,10.72-7.44,21.43-12.13,33.5-16.66C112.08-.63,141.12-2.09,163.9,2.86l4.03,1.05c2.01.62.84.33,1,.94l1.48-.47s.06.13.07.16l.26.45c.42.49,1.27.61,1.98.8,2.89.79,16.07,4.94,17.91,6.81-1.42-.23-4.1-1.55-5.87-2.16-10.49-3.62-20.87-6.91-32.06-7.87-1.2-.1-2.36-.21-3.63-.36-1.45-.17-2.21,0-3.36-.19-3.53-.57-11.84-.73-15.4-.37-13.49,1.36-27.15,3.38-39.75,8.15-5.13,1.95-14.97,5.88-19.04,8.67-1.55,1.07-.03-.05-.6.95-.37.64-5.19,3.29-6.08,3.84-3.19,1.98-6.56,4.45-9.34,6.63-13.43,10.55-24.94,23.33-33.3,38.32-.6,1.08-2.29,4-2.53,5.26.4-.35.35-.26.71-.85l1.59-2.9c3-5.66,3.35-4.91,4.6-6.87,10.65-16.65,27.33-32.24,44.76-41.81,1.76-.97,3.98-2.43,5.78-2.59.74-.06,1.13-.38,1.87-.74,4.86-2.35,11.28-4.66,16.67-6.29,12.03-3.65,25.35-6.32,39.82-6.33,10.94,0,30.62,1.97,39.55,6.1,1.93.89,4.26,1.41,6.31,2.17l11.84,5.21c-1.72-.43-4.45-1.87-6.2-2.62-6.24-2.7-12.64-4.72-19.34-6.37-28.29-6.97-57.9-3.93-83.8,7.22-9.53,4.1-21.76,11.4-29.62,18.29-8.82,7.74-16.1,14.98-22.9,24.77-6.53,9.41-12.22,20.21-16.18,31.49-1.82,5.2-5.78,20.69-5.72,26,.06,4.96-.74,9.94-.74,14.98,0,20.31,4.59,39.37,11.75,55.14,7.34,16.18,17.81,30.43,30.6,42.28,1.43,1.32,2.61,2.29,4.23,3.75,2.87,2.59,5.9,4.69,9.11,7.11,8.9,6.71,20.84,12.81,31.82,16.6,10.53,3.63,22.21,6.34,33.53,6.89,2.57.12,5.22.71,7.24.71,11.46-.02,21.81-.74,33.1-3.55,4.88-1.21,9.76-2.57,14.43-4.28,11.96-4.39,23.87-11.25,32.53-18.13,12.07-9.59,22.14-19.98,30.54-32.86,5.12-7.85,9.33-16.06,12.66-25l-.7,3.45c1.09-1.21,3.5-8.9,4.32-11.33,4.31-12.82,6.2-26.17,6.39-40.28l.37-7.39c2.37,14.46.05,34.92-3.18,47.77-1.08,4.32-4.37,16.47-6.17,20.52-.73,1.64-2.49,4.53-2.8,6.05.05-.04.11-.11.15-.14l7.63-16.42c2.03-5.21,5.21-17.65,5.53-18.42.59,1.35-1.68,10.83-2.18,12.81-4.74,18.75-14.31,36.15-27.07,50.28-6.02,6.67-9.31,9.61-15.72,15.22-10.95,9.58-25.72,17.56-39.25,22.62-7.81,2.92-15.58,4.9-24.42,6.52-2.25.41-4.67.69-6.76.98-7.44,1.02-14.04.84-21.64.81-5.38-.01-11.63-.96-16.85-1.85-4.69-.8-9.42-1.67-13.9-3.07-16.62-5.19-19.73-6.29-35.72-15.17-8.44-4.69-21.82-15.13-28.46-22.44l-8.02-8.95c-7.71-9.02-14.72-20.15-19.53-31.36C4.6,173.4.03,154.7,0,134.33Z"/>
  </g>
</svg>