<?xml version="1.0" encoding="UTF-8"?>
<svg id="_Слой_2" data-name="Слой 2" xmlns="http://www.w3.org/2000/svg" viewBox="0 0 234.78 192.63">
  <defs>
    <style>
      .cls-1 {
        fill: #fff;
        fill-rule: evenodd;
      }
    </style>
  </defs>
  <g id="_1" data-name="1">
    <path class="cls-1" d="m40.15,181.42l-2.41-3.76-13.59,8.71-.03-.04,12.19-10.91-1.63-2.55-15,6.52-.03-.05,13.59-8.71-2.41-3.76-17.48,11.21,3.94,6.15,9.37-4.46.03.04-7.96,6.67,3.94,6.15,17.48-11.21h0Zm-10.96-17.06l-19.32,7.62-2.68-6.8,9.1-5-.02-.04-10.06,2.56-2.68-6.79,19.32-7.62,1.64,4.15-15.02,5.92.02.06,15.98-3.5,1.11,2.82-14.07,8.34.02.05,15.02-5.92,1.64,4.15h0Zm-6.74-18.04l-1.04-4.5-3.7.36-.73-3.16,3.5-1.25-1.09-4.72L0,141.4l1.38,5.98,21.07-1.05h0Zm-18.67-2.86v-.05s9.65-3.38,9.65-3.38l.54,2.33-10.19,1.1h0Zm11.36-45.7c1.54.45,2.96.53,4.25.23.62-.16,1.18-.48,1.65-.93.49-.44.84-1.07,1.08-1.88.45-1.59.14-2.96-.94-4.1v-.05s1.64.46,1.64.46l1.14-4.03-10.97-3.12-1.71,6.01,3.67,1.04.49-1.72,2.58.73c1.02.29,1.37.95,1.06,1.99-.2.64-.56.98-1.08,1-.23.01-.46,0-.67-.02-.18-.03-.35-.07-.48-.11l-9.88-2.81c-.37-.09-.73-.29-1.07-.6-.38-.31-.5-.76-.35-1.34.3-.98.96-1.32,2-1l2.01.57,1.24-4.38-2.23-.63c-.95-.27-1.8-.34-2.52-.2-.72.12-1.35.41-1.87.88-1.03.95-1.76,2.23-2.21,3.86-.49,1.73-.43,3.27.21,4.62.65,1.39,1.95,2.37,3.89,2.94l9.08,2.58h0Zm9.44-12.45l-18.92-8.55,2.6-5.76c1.58-3.77,3.94-4.92,7.06-3.45,1.11.49,1.96,1.04,2.56,1.68.57.68.78,1.66.63,2.95l.05.02c1.11-1.48,2.49-1.87,4.16-1.18l3.34,1.51c.65.29,1.33.58,2.03.86.71.27,1.29.38,1.74.32l-1.94,4.29c-.45.06-1.03-.03-1.75-.28-.72-.25-1.4-.53-2.04-.84l-3.03-1.37c-.56-.25-1.01-.31-1.38-.19-.35.15-.67.53-.95,1.15l-.36.8,8.18,3.7-1.97,4.36h0Zm-13.74-11.46l4.32,1.95.48-1.07c.33-.73.31-1.27-.06-1.63-.36-.31-.86-.6-1.5-.88-.33-.15-.63-.28-.9-.38-.28-.11-.52-.14-.73-.11-.23.02-.45.13-.64.32-.19.19-.39.51-.58.94l-.38.85h0Zm19.44-1.27l2.49-3.89-2.85-2.39,1.75-2.73,3.33,1.63,2.61-4.08-19.52-8.04-3.31,5.16,15.48,14.33h0Zm-11-15.35l.03-.04,9.17,4.55-1.29,2.01-7.91-6.52h0Zm9.37-12.03l.36-.42c.27-.31.52-.58.74-.81.22-.2.46-.33.7-.38.45-.12,1.13.22,2.05,1.01.35.3.64.57.87.79.23.27.38.52.47.74.16.45,0,.96-.5,1.53l-.79.91-3.9-3.37h0Zm9.78,14.8l-15.7-13.6,3.35-3.87c1.69-2.01,3.21-3.2,4.56-3.59,1.38-.33,3.07.38,5.06,2.12.58.5,1.11,1.03,1.6,1.59.47.57.81,1.19,1.02,1.86.22.65.24,1.34.07,2.07-.15.75-.57,1.54-1.29,2.36l-1.77,2.05,6.23,5.39-3.13,3.61h0Zm1.98-26.91l.42-.36c.31-.27.59-.5.85-.7.25-.17.5-.26.75-.28.46-.05,1.09.38,1.89,1.3.3.35.55.65.75.9.19.3.31.57.36.8.1.46-.14.95-.72,1.45l-.91.79-3.38-3.9h0Zm7.57,16.04l3.61-3.13-5.39-6.23,2.05-1.77c.83-.71,1.36-1.43,1.61-2.15.28-.7.35-1.38.23-2.06-.12-.69-.37-1.36-.75-1.99-.4-.62-.86-1.22-1.36-1.8-1.72-2.01-3.29-2.95-4.71-2.82-1.39.2-3.06,1.16-5.02,2.91l-3.87,3.35,13.6,15.7h0Zm11.23-9.5l-11.21-17.48,4.02-2.58,9.06,14.14,4.25-2.72,2.14,3.34-8.26,5.3h0Zm9.9-6.22l4.25-2.18-9.47-18.48-4.25,2.18,9.47,18.48h0Zm6.06-3.28l-7.62-19.32,4.87-1.92,8.07,9.97.05-.02-4.49-11.39,4.15-1.64,7.62,19.32-4.83,1.9-8.31-10.53-.06.02,4.71,11.95-4.16,1.64h0Zm13.52-11c.35,1.57.96,2.85,1.85,3.83.45.47.98.8,1.61.99.62.21,1.35.22,2.17.03,1.61-.37,2.66-1.31,3.14-2.81h.05s.38,1.64.38,1.64l4.08-.94-2.56-11.11-6.09,1.4.86,3.71,1.74-.4.6,2.61c.24,1.03-.17,1.66-1.23,1.89-.66.13-1.12-.02-1.4-.46-.12-.2-.22-.4-.3-.6-.06-.18-.11-.34-.14-.47l-2.31-10.01c-.1-.37-.1-.78,0-1.22.09-.48.42-.8,1-.95,1-.21,1.62.21,1.84,1.26l.47,2.04,4.44-1.02-.52-2.25c-.22-.97-.57-1.74-1.04-2.3-.45-.58-1.01-.98-1.67-1.22-1.33-.45-2.81-.47-4.45-.07-1.76.41-3.07,1.21-3.95,2.41-.9,1.24-1.14,2.85-.7,4.83l2.12,9.19h0Zm34.53-15.1l.55.04c.41.03.78.07,1.09.11.29.06.53.17.73.34.36.29.5,1.04.41,2.25-.03.46-.07.85-.11,1.16-.08.34-.19.62-.32.82-.26.4-.77.57-1.53.51l-1.2-.09.39-5.14h0Zm-6.06,16.67l4.77.36.62-8.22,2.7.2c1.09.08,1.98-.04,2.67-.37.69-.29,1.23-.72,1.62-1.29.41-.57.7-1.22.89-1.93.16-.73.26-1.47.32-2.23.22-2.64-.22-4.42-1.31-5.33-1.12-.85-2.98-1.36-5.6-1.52l-5.1-.39-1.58,20.71h0Zm13.95.9l4.5,1.04,1.29-3.49,3.16.73-.41,3.69,4.72,1.09,1-21.08-5.98-1.38-8.29,19.4h0Zm10.75-15.53h.05s-1.2,10.17-1.2,10.17l-2.33-.54,3.47-9.64h0Zm3.94,18.82l4.16,1.64,4.71-11.95.06.02-1.11,13.37,4.83,1.9,7.62-19.32-4.15-1.64-4.49,11.39-.05-.02.91-12.8-4.87-1.92-7.62,19.32h0Zm15,6.08l10.35-18,3.87,2.22-4.23,7.36.08.04,6.89-5.84,4.26,2.45-7.63,5.54-2.7,12.48-4.28-2.46,1.93-7.46h0l-1.81.94-2.85,4.95-3.87-2.22h0Zm12.2,7.17l3.76,2.96,5.54-7.05.69.54c.53.42.83.82.89,1.2.03.38-.14.81-.51,1.29l-2.05,2.61c-.45.55-.89,1.14-1.31,1.78-.41.64-.64,1.18-.69,1.63l3.7,2.91c.06-.44.3-.98.73-1.61.44-.62.88-1.21,1.32-1.77l2.27-2.89c1.07-1.45,1.02-2.89-.15-4.32l.03-.04c1.22.45,2.22.48,3.01.09.76-.43,1.5-1.12,2.24-2.08,2.17-2.68,1.61-5.24-1.66-7.68l-4.97-3.91-12.83,16.33h0Zm14.41-10.6l.73.58c.37.29.63.56.77.79.14.24.2.47.16.7-.02.21-.11.44-.28.68-.17.24-.36.5-.58.79-.42.55-.82.97-1.21,1.24-.44.27-.97.16-1.6-.33l-.92-.73,2.93-3.73h0Zm-3.52,19.28l17.59-11.64,4.23,4.44-12.43,17.06-3.34-3.51,2.37-2.85-2.24-2.35-3,2.2-3.19-3.35h0Zm17.52-7.06l.04.04-6.59,7.83-1.65-1.73,8.2-6.14h0Zm6.06,7.91l1.73,2.44-13.69,9.73,2.77,3.89,13.69-9.73,1.74,2.45,3.24-2.3-6.24-8.78-3.24,2.3h0Zm-6.61,19.95l18-10.35,2.38,4.14-18,10.35-2.38-4.14h0Zm19.63,3.86l-9.36,4.23c-.13.06-.28.14-.44.23-.18.12-.36.26-.53.41-.38.35-.45.82-.2,1.4.15.33.34.55.57.66.2.11.41.16.64.14.48-.08.84-.2,1.11-.33l9.36-4.23c.37-.15.72-.36,1.05-.64.16-.15.26-.34.31-.57.01-.22-.05-.49-.2-.83-.28-.57-.65-.84-1.11-.81-.43.04-.83.16-1.18.34h0Zm-10.96-.29c-3.53,1.67-4.51,4.37-2.93,8.08,1.74,3.62,4.41,4.67,8.01,3.15l8.61-3.89c1.83-.84,2.98-2,3.42-3.47.43-1.42.26-2.97-.49-4.62-.74-1.64-1.79-2.78-3.14-3.4-1.39-.64-3.01-.56-4.87.26l-8.61,3.89h0Zm.62,15.62l19.98-5.67,1.43,5.03-10.72,7.04v.05s11.79-3.34,11.79-3.34l1.22,4.29-19.98,5.67-1.42-4.99,11.3-7.23-.02-.06-12.36,3.51-1.22-4.3h0Zm4.39,47.76l-1.52,6.6c-.46,2.05-.2,3.62.75,4.7.92,1.01,2.26,1.71,4,2.09,2.63.66,4.42,0,5.37-1.99h.05c.15,1.2.61,2.06,1.39,2.57.77.5,1.7.86,2.78,1.1,3.24.75,5.22-.57,5.93-3.95l1.49-6.45-20.24-4.67h0Zm7.87,6.72l-.25,1.07c-.18.71-.57,1.1-1.16,1.17-.56.07-1.22,0-1.96-.18-.99-.21-1.67-.46-2.05-.75-.39-.32-.5-.85-.32-1.62l.22-.97,5.5,1.27h0Zm7.85,1.81l-.26,1.11c-.14.6-.42.97-.84,1.11-.43.1-1,.07-1.71-.09-.65-.12-1.18-.34-1.6-.64-.42-.33-.54-.87-.37-1.62l.21-.91,4.57,1.05h0Zm-3.77,23.59l-14.5-5.72c-3.45-1.38-4.45-3.85-3.02-7.4.22-.56.51-1.1.88-1.63.36-.55.82-1.01,1.37-1.38.56-.38,1.25-.59,2.07-.64.81-.07,1.76.11,2.84.53l2.82,1.11-1.64,4.15-3.28-1.3c-.3-.13-.59-.19-.89-.17-.31,0-.55.19-.71.59-.11.28-.11.56,0,.83.11.26.41.49.88.68l14.94,5.89-1.75,4.45h0Zm-6.69,13.45l2.18-4.26-14.29-7.32c-.45-.23-.72-.49-.81-.76-.08-.27-.05-.55.09-.82.2-.39.46-.56.77-.52.29,0,.58.09.87.25l3.14,1.61,2.03-3.97-2.7-1.38c-1.04-.53-1.96-.8-2.78-.81-.82-.03-1.53.11-2.12.44-.59.32-1.09.73-1.5,1.24-.41.49-.76,1-1.03,1.54-1.78,3.39-1.02,5.95,2.28,7.66l13.87,7.11Z"/>
  </g>
</svg>