<?xml version="1.0" encoding="UTF-8"?>
<svg id="_Слой_2" data-name="Слой 2" xmlns="http://www.w3.org/2000/svg" viewBox="0 0 139.77 45.47">
  <defs>
    <style>
      .cls-1 {
        fill: #fff;
        fill-rule: evenodd;
      }
    </style>
  </defs>
  <g id="_1" data-name="1">
    <path class="cls-1" d="m0,22.3l10.54,7.01,2.84-4.27-5.42-3.6L19.96,3.41,14.84,0,0,22.3h0Zm19.32,3.53l7.74-17.91,5.66,2.45-7.77,17.97c-.3.65-.48,1.25-.53,1.81-.04.61.32,1.07,1.08,1.4.43.19.8.24,1.1.17.27-.03.51-.13.7-.33.36-.43.66-.98.93-1.64l7.77-17.97,5.65,2.44-7.73,17.88c-2.11,4.58-5.57,5.9-10.37,3.95-4.73-2.17-6.14-5.59-4.23-10.23h0Zm23.12-6.18l3.76.86-4.85,21.11,6,1.38,4.85-21.11,3.77.87,1.15-4.99-13.54-3.11-1.15,4.99h0Zm14.36,25.12l5.86-26.57,7.91.32,3.78,26.96-6.24-.25-.36-4.77-4.18-.17-.8,4.73-5.96-.24h0Zm9.91-22.26l-2.09,13.05,3.08.12-.92-13.17h-.07Zm17.04-.35l.96-.14c1.69-.25,2.65.38,2.9,1.89l1.91,12.96c.2,1.54-.54,2.41-2.23,2.63l-.96.14-2.58-17.49h0Zm-2.86,22.9l9.09-1.34c1.7-.25,3.14-1.01,4.32-2.26,1.19-1.29,1.63-3.13,1.31-5.53l-1.86-12.6c-.29-2.11-.98-3.74-2.08-4.91-1.16-1.16-3.03-1.56-5.6-1.21l-9.09,1.34,3.91,26.5h0Zm21.85-25c-.2-.48-.31-.99-.33-1.55,0-.6.38-1.05,1.14-1.36.44-.16.8-.23,1.08-.19.29.09.53.24.71.45.33.45.57.91.74,1.4l4.62,12.42c.15.35.26.83.33,1.45,0,.29-.08.56-.24.81-.16.28-.46.51-.9.67-.78.27-1.37.14-1.79-.38-.18-.24-.34-.47-.48-.72-.1-.22-.19-.41-.25-.59l-4.62-12.42h0Zm-1.34,14.08c1.84,4.69,5.22,6.18,10.14,4.48,4.81-1.92,6.4-5.26,4.75-10.03l-4.25-11.42c-.92-2.43-2.31-4-4.16-4.7-1.79-.67-3.79-.6-5.99.22-2.18.81-3.73,2.06-4.65,3.74-.95,1.74-.98,3.83-.09,6.28l4.25,11.42h0Zm24.26-1.87l-13.68-23.03,7.01-4.17c4.46-2.81,7.8-2.29,10.02,1.57.81,1.34,1.3,2.55,1.46,3.67.1,1.14-.4,2.33-1.51,3.58l.03.06c2.26-.75,4.02-.14,5.27,1.82l2.42,4.07c.47.79.97,1.59,1.51,2.41.56.81,1.09,1.35,1.6,1.63l-5.22,3.1c-.52-.26-1.07-.79-1.65-1.59-.58-.8-1.09-1.6-1.54-2.4l-2.19-3.68c-.4-.68-.84-1.08-1.32-1.22-.48-.1-1.1.07-1.85.51l-.97.58,5.91,9.95-5.3,3.15h0Zm-6.05-22.26l3.12,5.26,1.3-.77c.88-.53,1.26-1.11,1.14-1.77-.15-.6-.46-1.27-.93-2.03-.24-.4-.46-.76-.67-1.07-.21-.32-.45-.53-.69-.65-.26-.15-.57-.2-.92-.14-.35.06-.78.25-1.31.56l-1.03.61Z"/>
  </g>
</svg>