<?xml version="1.0" encoding="UTF-8"?>
<svg id="_Слой_2" data-name="Слой 2" xmlns="http://www.w3.org/2000/svg" viewBox="0 0 107.04 116.57">
  <defs>
    <style>
      .cls-1 {
        fill: #fff;
        fill-rule: evenodd;
      }
    </style>
  </defs>
  <g id="_1" data-name="1">
    <path class="cls-1" d="m82.98,0c-4.19,0-7.73,2.83-8.94,6.74v5.9c1.21,3.91,4.75,6.74,8.94,6.74,5.18,0,9.38-4.34,9.38-9.69S88.16,0,82.98,0h0Zm-8.94,92.72v-14.19c12.51,4.34,24.24,11.65,33,21.98-3.79,4.08-8.04,7.72-12.69,10.82-6.58-7.77-13.48-13.92-20.32-18.61h0Zm0-45.03v-8.95c.42,1.88.55,3.97.35,6.27-.08.9-.2,1.79-.35,2.68h0Zm0-17.48v-12.22c18.04,10.78,22.71,32.38,12.41,49.01l-2.41-1.13-3.37-1.58c4.85-13.09.63-26.5-6.63-34.08Zm0-23.47c-.29.93-.44,1.92-.44,2.95s.16,2.02.44,2.95v-5.9h0Zm0,11.25v12.22c-1.95-2.04-4.12-3.65-6.4-4.73-2.25-1.07-4.5-1.91-6.56-2.56v-1.35c3.02-2.28,4.24-5.28,4.73-7.39,3,1.03,5.74,2.32,8.23,3.81h0Zm0,20.75c-1.48-6.67-6.5-10.74-12.96-12.84v12.35c.23,1.42.22,2.88,0,4.32v24.28c1.15-.68,2.22-1.41,3.21-2.17,5.03-3.86,8.55-10.2,9.75-17v-8.95h0Zm0,39.8v14.19c-4.38-3.01-8.73-5.4-12.96-7.23v-10.36c4.35.79,8.7,1.92,12.96,3.4h0Zm-12.96-61.54c.88-1.48,1.39-3.22,1.39-5.08s-.51-3.61-1.39-5.08v10.17Zm0-10.17v10.17c-1.65,2.77-4.61,4.61-7.99,4.61h0V2.21h0c3.38,0,6.34,1.84,7.99,4.61h0Zm0,14.74c-.43.32-.89.63-1.39.92.45.13.92.27,1.39.43v-1.35h0Zm0,4.33v12.35c-.26-1.62-.82-3.21-1.7-4.7,1.22,6.08-1.99,11.67-6.28,15.78v-25.06c.38.06.77.11,1.16.16h0,0c2.38.29,4.68.77,6.82,1.46h0Zm0,16.68c-.69,4.5-3.5,8.93-7.99,12.25v15.48c3.01-.88,5.67-2.07,7.99-3.45v-24.28h0Zm0,32.57v10.36c-2.73-1.18-5.4-2.12-7.99-2.83v-8.59c2.65.22,5.32.58,7.99,1.06ZM53.09,2.21v19.39c-5.18,0-9.38-4.34-9.38-9.69s4.2-9.69,9.38-9.69h0Zm0,22.06c-6.32-1-11.5-3.96-12.59-11.43C23.46,17.67,9.65,30.17,3.03,46.38c.06.04,2.99,2.06,4.34,2.93,1.37.88,2.05.88,2.05.88,0,0,1.88-5.31,6.55-11.24,1.02-1.24,4.61-5.05,10-5.01h0c-4.58,4.71-8.02,11.99-7.42,20.41,0,0-.24.1,2.54.88,2.78.78,5.61,1.27,5.61,1.27,0,0-.59-10.93,6.05-16.6,6.64-5.66,11.32-6.15,11.32-6.15-2.06-6.3-9.09-6.7-14.79-5.95,2.51-1.22,5.12-1.98,7.53-1.82,7.12.06,11.52,6.15,9.32,16.53-1.57,7.44-4.3,13.47-4.3,13.47,3.15-.72,7.59-3.14,11.26-6.65v-25.06h0Zm0,30.55v15.48c-12.11,3.54-29.79,1.9-53.09-14.03l2.24-7.85c22.22,15.68,40.78,13.85,50.86,6.4h0Zm0,19.25c-8.39-.71-16.58-.13-23.95,1.74-22.81,5.79-25.59,21.22-25.92,25.08l.22.55c6.01,6.24,13.14,11.39,21.07,15.12-13.08-26.78,4.12-40.6,28.58-33.91v-8.59Z"/>
  </g>
</svg>