<?xml version="1.0" encoding="UTF-8"?>
<svg id="_Слой_2" data-name="Слой 2" xmlns="http://www.w3.org/2000/svg" viewBox="0 0 160.05 175.26">
  <defs>
    <style>
      .cls-1 {
        fill: #fce600;
        fill-rule: evenodd;
      }
    </style>
  </defs>
  <g id="_1" data-name="1">
    <path class="cls-1" d="m1.23,91.33c-.06-.96-.09-1.77-.1-2.28-.09-8.31.8-16.78,2.77-24.61.9-3.59,2.24-6.46,3.61-9.82,3.95-9.68,5.99-14.43,12.22-22.1,5.14-6.33,10-11.92,16.97-16.87,5.53-3.92,11.25-7.02,17.65-9.71,3.38-1.43,6.41-2.28,10.14-3.31C72.15.52,79.75-.15,88.98.03c4.88.09,18.72,2.4,22.29,4.77-2.56-.11-11.56-3.47-19.16-3.37.82.57,6.75,1.17,7.7,1.71-2.48-.07-3.36-.7-6-.21-1.66.31-4.42.32-5.07,1.65.94.48,4.02.6,5.46.77,4.75.57,10.55,2.09,14.91,3.56,5.09,1.73,10.38,3.87,15.01,6.82.78.49,1.33.63,1.55,1.27-.82-.16-2.92-1.31-3.93-1.79-3.87-1.86-7.66-3.41-11.93-4.87-3.25-1.11-1.95-.74-4.46-.86-3.8-.17-8.02-2.08-14.46-2.07-6.91,0-14.9-.13-20.78,1.55-1.88.54-14.31,4.64-15.77,6.69,3.89-.93,5.7-3.5,16.35-5.37l7.05-1.01c.9,0,.29.36,1.93.19,3.55-.36,6.81-.35,10.5-.32-1.05.63-3.08.35-4.54.47-1.14.1-3.17.12-4.18.72,5.17.11,10.46-.52,15.39.05,7.29.84,12.75,2.23,19.48,4.27,1.05.32,2.13.6,3.13.96.85.31,1.74.83,2.59,1.24,3.38,1.59,6.73,3.57,9.84,5.76,10.42,7.33,18.45,15.63,24.79,26.57.28.48.45.83.67,1.24l1.94,3.82c.43.93,1.32,1.83.26,2.67-1.08.44-1.46-1.16-1.96-2.15-.55-1.1-1.08-1.95-1.61-2.95-.98-1.84-2.25-3.9-3.47-5.65-2.47-3.54-5.1-6.81-7.97-10.03-4.17-4.67-9.52-9.14-15-12.38-1.45-.86-4.1-2.67-5.84-3.12.17.21,10.38,6.96,16.67,14.15,3.32,3.8,10.87,13.6,11.97,18.5-1.34-.7-1.87-2.09-2.38-3.37l-.25.96c-4.65-3.41-10.98-16.34-25-25.63-7.81-5.18-16.96-9.81-26.31-11.61-3.5-.67-8.25-.37-12.08-.42,1.69-.91,4.56.35,6.28-.43-7.47-.47-13.99.04-20.94,1.57-7.51,1.65-14.51,5.35-20.95,9.3-1.3.8-3.13,2.5-4.43,2.99.79-2.34,7.11-5.46,9.67-6.61,3.96-1.79,4.9-3.24,10.82-5.26l8.18-2.52c-7.23-.05-17.93,3.94-23.91,7.17-1.42.77-2.35,1.36-3.74,2.27-2.54,1.67-4.59,3.25-6.97,5.27-6.81,5.75-12.33,12.3-16.77,19.96l-3.34,6.02c-.21.37-.29.55-.51.93-.31.54-.23.48-.6.84.31-1.45,1.11-2.46,1.49-3.88-.3.25-.11.06-.37.41,0,0-.27.44-.29.46-2.49,4.36-4.18,9.03-5.53,13.9-1.23,4.41-2.97,12.71-2.1,18.35l.57-2.29c.12,5.8.62,11.49,1.24,17,.04.32.1.76.17,1.26.05.31.11.68.19,1.11,0,.02.83,3.23,2.13,7.36v1.82c1.56,5.57,4,12.36,7.33,16.34,1.5,1.79,2.69,3.34,3.75,4.76v-.31c.26.36.52.73.79,1.09v.09h-.15c3.09,4.22,5.23,7.53,11.18,13.36.93.85,1.89,1.66,2.88,2.42.21-.03.42-.06.62-.1.29.3.55.58.78.85,1.44,1.01,2.93,1.96,4.45,2.83,1.1.5,1.79.89,2.16,1.16.84.43,1.69.83,2.55,1.2,2.53,1.1,5.01,2.23,7.7,3.34,10.42,4.27,20.83,5.06,32.18,5.03,6.11-.02,14.73-2.15,19.77-3.76,5.38-1.71,11.72-4.29,16.29-6.99.74-.44,1.3-.73,1.99-1.15,1.23-.75,2.12-1.24,2.8-1.58h0s5.99-4.23,9.1-7.06c.62.1,3.66.61,5.06-.87l4.46,2.02,1.58-1.18c1.98.45,4.6,1.7,1.81,5.18-.33.42-.72.83-1.14,1.25-.57.6-1.14,1.18-1.78,1.8-7.1,6.99-15.34,12.43-24.62,16.64-10.69,4.85-24.02,8.67-38.66,8.67-4.07.06-14.79-.63-17.25-1.77-.73-.34-.31-.31-1.34-.57-.52-.14-.98-.22-1.37-.32-15.89-4.14-28.39-9.02-40.89-19.34-1.69-1.4-3.93-3.49-6.21-5.85,0,0-.79-.72-2.05-2.03-3.22-2.97-7.47-7.77-10.9-14.68h0c-1.55-2.85-2.92-5.94-3.86-9.18h0c-1.4-3.55-2.62-7.23-3.38-10.62-.75-3.33-1.23-5.8-1.54-7.69-.52-2.67-.83-5.28-.59-7.02h0c-.06-1.03.28-2.37.64-3.48.51,1.73.43,5.83,3.3,18.83,2.88,13,8.06,22.19,11.81,27,3.75,4.81,12.75,11.44,12.75,11.44l-2.87-2.69c-2.87-2.69-7.06-7.25-7.06-7.25,0,0-3.12-2.38-9.12-15C3.52,112.41,1.23,91.33,1.23,91.33h0ZM61.35,9.13l1.06-.74c-3.22.06-12.59,4.68-15.3,6.15-10.88,5.9-18.5,12.74-25.34,22.67-.74,1.07-1.48,2.26-2.14,3.39-.83,1.42-3.46,5.64-3.66,7.24,1.84-1.87,5.51-13.8,22.24-26.35,3.02-2.26,7.43-5.4,11.02-6.97,10.11-4.42,11.98-4.54,21.7-7.09l1.25-.51c-8.44.65-6.62,1.4-10.83,2.22h0Zm87.01,38.43c-.61-1.66-2.6-4.24-3.73-5.77-.54-.73-.77-1.24-1.45-1.71l1.1,2.05c.36.72.91,1.12,1.34,1.77l1.86,2.7c.04.06.24.39.28.43.4.48.18.23.59.53h0ZM13.03,108.98s0,18.75,21.75,37.25c21.75,18.5,52.25,18.75,52.25,18.75,0,0-62.25-4-74-56h0Zm3.5,5.75c3.73,14.93,14.5,23.81,14.5,23.81,0,0-2.5-2.31-6.5-8.31s-8-15.5-8-15.5Z"/>
  </g>
</svg>