<svg width="92" height="92" viewBox="0 0 92 92" fill="none" xmlns="http://www.w3.org/2000/svg">
<rect x="0.5" y="0.5" width="90.5618" height="90.5618" stroke="#F8E31A"/>
<path d="M53.8369 38.5819C54.2326 38.8356 54.637 39.0736 55.0491 39.2955V39.4285V54.8011C55.0376 57.4615 54.2371 60.0587 52.7489 62.2639C51.2604 64.4695 49.1508 66.1838 46.6874 67.1897C44.2239 68.1956 41.5174 68.4479 38.9105 67.9146C37.9025 67.7083 36.927 67.3883 36.0013 66.9638C36.8861 67.1776 37.7928 67.308 38.7096 67.3515C41.3134 67.4748 43.9021 66.8911 46.2011 65.6625C48.5001 64.4338 50.4238 62.6058 51.7681 60.3724C53.1124 58.139 53.8273 55.5835 53.8369 52.9767V52.9749V38.5819ZM64.3509 41.0068V35.6699C64.7481 35.7333 65.1487 35.7741 65.5506 35.792V42.254C63.4228 42.2014 61.3325 41.7616 59.3792 40.9661C60.8341 41.3259 62.3356 41.5095 63.8518 41.5068L64.3509 41.506V41.0068ZM55.0491 25.6832V25.7056L55.0511 25.7279C55.151 26.8429 55.4209 27.9279 55.845 28.9479C55.734 28.8017 55.6268 28.6523 55.5236 28.4999C54.8465 27.4991 54.3566 26.3857 54.0758 25.2139H55.0491V25.6832ZM43.0686 48.0643C42.5967 47.9644 42.1152 47.9139 41.6316 47.9139C40.3476 47.9035 39.0864 48.2537 37.9914 48.9244C36.8958 49.5956 36.0105 50.5609 35.4365 51.7104C34.8624 52.86 34.6226 54.1476 34.7442 55.4267C34.7902 55.9094 34.8869 56.3836 35.0315 56.8419C34.56 56.3082 34.1854 55.6887 33.9316 55.0102C33.4145 53.6276 33.4367 52.101 33.9939 50.7341C34.5511 49.3672 35.6023 48.2601 36.9386 47.6329C38.2749 47.0058 39.7982 46.9046 41.2057 47.3496L41.8564 47.5552V46.8728V41.3814C42.2613 41.3876 42.6657 41.411 43.0686 41.4518V48.0643Z" stroke="#F8E31A"/>
<path d="M53.6271 37.1827L52.8335 36.6141L52.8358 37.5904L52.8731 52.9739C52.8731 52.9743 52.8731 52.9747 52.8731 52.9751C52.8682 55.4067 52.204 57.7914 50.9512 59.8754C49.6981 61.9597 47.9031 63.665 45.7574 64.8098C43.6117 65.9546 41.1957 66.4959 38.7667 66.3761C36.3551 66.2571 34.0204 65.4909 32.0076 64.1584C30.1998 62.2932 28.9713 59.9436 28.4715 57.3939C27.9684 54.827 28.2257 52.1691 29.2118 49.7464C30.1979 47.3238 31.87 45.2417 34.0227 43.7559C36.0346 42.3673 38.3846 41.5559 40.818 41.4045V46.2265C40.346 46.1271 39.8645 46.0761 39.3809 46.0745L39.3782 46.0745C37.8328 46.0778 36.3335 46.6017 35.1224 47.5616C33.9112 48.5215 33.0587 49.8615 32.7025 51.3653C32.3463 52.8691 32.5071 54.4491 33.159 55.8503C33.7948 57.2168 34.8614 58.3355 36.1936 59.0358C37.0583 60.132 38.2369 60.9396 39.5733 61.35C40.9463 61.7716 42.4168 61.7526 43.7785 61.2958C45.1401 60.8389 46.3245 59.9671 47.1654 58.8028C48.0063 57.6384 48.4615 56.24 48.467 54.8037V54.8018V25.2139H53.0491C53.347 26.5879 53.905 27.8936 54.6943 29.0602C55.5494 30.324 56.6569 31.3966 57.947 32.2105C59.3995 33.7831 61.2779 34.8954 63.3498 35.4142V40.4509C59.859 40.3575 56.4717 39.2212 53.6271 37.1827Z" stroke="#F8E31A"/>
<path d="M52.8365 23.8759V23.8434V23.374H46.2555V52.9744V52.9763C46.2484 54.7942 45.5204 56.535 44.2311 57.8167C42.9423 59.098 41.1978 59.8158 39.3804 59.8126M52.8365 23.8759L37.5642 59.0543C38.1516 59.2281 38.7633 59.3157 39.38 59.3126L39.379 59.8126C39.3795 59.8126 39.3799 59.8126 39.3804 59.8126M52.8365 23.8759L52.8407 23.9081C52.8539 24.009 52.8734 24.1164 52.8917 24.2134M52.8365 23.8759L52.8917 24.2134M39.3804 59.8126C39.0762 59.8141 38.7731 59.795 38.4731 59.756C38.9055 60.0269 39.3739 60.2419 39.8675 60.3935C41.0408 60.7538 42.2975 60.7376 43.4611 60.3472C44.6247 59.9568 45.6368 59.2118 46.3554 58.2168C47.0738 57.222 47.4628 56.0273 47.4677 54.8003V24.7134V24.2134H47.9677H52.8917M39.3804 59.8126L52.8917 24.2134M61.5011 33.6671C62.1078 33.798 62.7265 33.8774 63.3505 33.9035V34.3812C62.7093 34.205 62.09 33.9653 61.5011 33.6671ZM40.8187 40.4545C38.2022 40.6147 35.6751 41.4851 33.5112 42.9765C31.203 44.5674 29.4081 46.7961 28.3457 49.3905C27.2834 51.9848 26.9997 54.8324 27.5293 57.5853C27.7488 58.7262 28.104 59.8304 28.5835 60.8758C27.7435 59.7217 27.087 58.4331 26.6471 57.054C25.7246 54.1624 25.8087 51.0436 26.8857 48.2059C27.9627 45.3682 29.9691 42.9789 32.5778 41.4274C35.0615 39.9504 37.9518 39.3156 40.8187 39.6108V40.4545Z" stroke="#F8E31A"/>
</svg>
